<svg width="24" height="24" viewBox="0 0 24 24" fill="none" xmlns="http://www.w3.org/2000/svg">
<g clip-path="url(#clip0_138_384)">
<path d="M12.0043 7.95683C9.73286 7.95683 7.90072 9.76035 7.90072 11.9963C7.90072 14.2322 9.73286 16.0357 12.0043 16.0357C14.2757 16.0357 16.1079 14.2322 16.1079 11.9963C16.1079 9.76035 14.2757 7.95683 12.0043 7.95683ZM12.0043 14.6225C10.5364 14.6225 9.33644 13.4447 9.33644 11.9963C9.33644 10.5478 10.5329 9.37011 12.0043 9.37011C13.4757 9.37011 14.6721 10.5478 14.6721 11.9963C14.6721 13.4447 13.4721 14.6225 12.0043 14.6225ZM17.2329 7.7916C17.2329 8.31543 16.8043 8.73379 16.2757 8.73379C15.7436 8.73379 15.3186 8.31191 15.3186 7.7916C15.3186 7.27129 15.7471 6.84941 16.2757 6.84941C16.8043 6.84941 17.2329 7.27129 17.2329 7.7916ZM19.9507 8.74785C19.89 7.48574 19.5971 6.36777 18.6579 5.44668C17.7221 4.52559 16.5864 4.2373 15.3043 4.17402C13.9829 4.1002 10.0222 4.1002 8.70072 4.17402C7.42215 4.23379 6.28644 4.52207 5.34715 5.44316C4.40787 6.36426 4.11858 7.48222 4.0543 8.74433C3.9793 10.0451 3.9793 13.9439 4.0543 15.2447C4.11501 16.5068 4.40787 17.6248 5.34715 18.5459C6.28644 19.467 7.41858 19.7553 8.70072 19.8185C10.0222 19.8924 13.9829 19.8924 15.3043 19.8185C16.5864 19.7588 17.7221 19.4705 18.6579 18.5459C19.5936 17.6248 19.8864 16.5068 19.9507 15.2447C20.0257 13.9439 20.0257 10.0486 19.9507 8.74785ZM18.2436 16.6404C17.965 17.3295 17.4257 17.8603 16.7221 18.1381C15.6686 18.5494 13.1686 18.4545 12.0043 18.4545C10.84 18.4545 8.33644 18.5459 7.28644 18.1381C6.58644 17.8639 6.04715 17.333 5.76501 16.6404C5.34715 15.6033 5.44358 13.1424 5.44358 11.9963C5.44358 10.8502 5.35072 8.38574 5.76501 7.35215C6.04358 6.66308 6.58287 6.13223 7.28644 5.85449C8.34001 5.44316 10.84 5.53809 12.0043 5.53809C13.1686 5.53809 15.6721 5.44668 16.7221 5.85449C17.4221 6.12871 17.9614 6.65957 18.2436 7.35215C18.6614 8.38926 18.565 10.8502 18.565 11.9963C18.565 13.1424 18.6614 15.6068 18.2436 16.6404Z" fill="white"/>
</g>
<defs>
<clipPath id="clip0_138_384">
<rect width="16" height="18" fill="white" transform="translate(4 3)"/>
</clipPath>
</defs>
</svg>
